<svg xmlns="http://www.w3.org/2000/svg" version="1.1" viewBox="-5.0 -10.0 110.0 135.0">
 <path d="m70.68 19.676v60.648c0 0.089843-0.074219 0.16797-0.16797 0.16797h-28.473c-0.0625 0-0.11719 0.03125-0.14844 0.089843-0.41406 0.78906-0.99609 1.5195-1.6836 2.1094-0.050781 0.042969-0.070312 0.11328-0.050781 0.17969s0.078125 0.10938 0.14453 0.11328c0.03125 0.003906 0.0625 0.003906 0.097657 0.003906h30.113c0.089843 0 0.16797 0.074219 0.16797 0.16797v6.75h0.003906c0 0.97266 1.082 1.582 1.918 1.0469l11.941-7.6797c0.003906 0 0.003906-0.003907 0.007812-0.003907 0.37891-0.21484 0.63672-0.62109 0.63672-1.0898l-0.003906-64.352h-0.003906c0-0.41016-0.20313-0.80859-0.57422-1.0469l-11.938-7.6836s-0.003907 0-0.003907-0.003906c-0.91016-0.625-1.9844 0.050781-1.9844 1.0039v6.75c0 0.089844-0.074219 0.16797-0.16797 0.16797h-30.113c-0.6875 0-1.2461 0.55859-1.2461 1.2461v14.367c0 0.078125 0.054687 0.14844 0.13281 0.16406l2.1602 0.4375c0.050782 0.011719 0.097657 0 0.13672-0.035157 0.039063-0.03125 0.0625-0.078124 0.0625-0.12891v-13.391c0-0.089843 0.074219-0.16797 0.16797-0.16797h28.699c0.089843 0.003907 0.16797 0.078126 0.16797 0.16797zm-34.684 41.539-4.457-3.5352c-0.24609-0.19531-0.46484-0.40625-0.66406-0.63281-0.03125-0.039063-0.074219-0.058594-0.125-0.058594s-0.09375 0.019531-0.125 0.058594l-4.4141 5.1367c-0.023438 0.027344-0.050782 0.042968-0.085938 0.054687l-9.0195 2.1914c-1.6055 0.39062-2.5977 2.0195-2.207 3.625 0.19141 0.78516 1.1758 1.4375 2.5391 1.2422l12.52-1.8125c0.035157-0.003906 0.066407-0.019531 0.09375-0.046875l5.957-5.9688c0.035157-0.035156 0.050782-0.078125 0.046876-0.12891 0-0.054688-0.019532-0.09375-0.058594-0.125zm16.992-18.742c0.03125 0.027344 0.066407 0.039063 0.10547 0.039063l8.8516 0.13672c0.97656 0.015624 1.6055 0.53906 1.6758 1.0703 0.1875 1.4102-0.81641 2.7148-2.2227 2.9023l-7.918 1.0469c-1.3125 0.17188-2.4961-0.10938-3.5859-0.85938l-3.2031-2.1953c-0.039062-0.027343-0.082031-0.035156-0.12891-0.023437-0.046875 0.011718-0.082031 0.035156-0.10547 0.078125l-4.5703 7.6172c-0.4375 0.72656-0.28516 1.6445 0.36328 2.1914l3.9141 3.3125c1.5742 1.332 2.1602 3.4844 1.2734 5.3438l-7.6758 16.133c-0.42188 0.88281-1.1406 1.6133-1.8555 2.0078-0.55078 0.30078-1.1016 0.40625-1.5156 0.23047-1.5195-0.64453-2.1758-2.3906-1.5938-3.9375l5.7344-15.223c0.027344-0.070312 0.003906-0.14453-0.050781-0.1875l-7.0508-5.5977c-1.9336-1.5352-2.4883-4.3203-1.0703-6.4609l5.9531-8.9727c0.03125-0.042969 0.035156-0.09375 0.019531-0.14453s-0.054687-0.085938-0.10547-0.10547l-3.6367-1.2422c-0.046875-0.015624-0.089844-0.011718-0.13281 0.011719l-8.4102 4.5547c-3.0078 1.6289-5.207-1.9102-2.332-3.7578l7.6172-4.8984c1.1914-0.76562 2.3984-1.3242 3.7852-1.043l7.7266 1.5586c2.168 0.4375 3.9922 1.1172 5.668 2.5586zm-3.6445-14.742c2.5078 0 4.5391 2.0312 4.5391 4.5391 0 2.5078-2.0312 4.5391-4.5391 4.5391s-4.5391-2.0312-4.5391-4.5391c0-2.5078 2.0312-4.5391 4.5391-4.5391zm28.457 26.844c0 0.6875-0.55859 1.2461-1.2461 1.2461s-1.2461-0.55859-1.2461-1.2461v-9.1445c0-0.6875 0.55859-1.2461 1.2461-1.2461s1.2461 0.55859 1.2461 1.2461z" fill-rule="evenodd"/>
</svg>