<svg xmlns="http://www.w3.org/2000/svg" xmlns:xlink="http://www.w3.org/1999/xlink" viewBox="0 0 100 125" version="1.1" x="0px" y="0px">
<title>Sprinkler</title>
<g stroke="none" stroke-width="1" fill="none" fill-rule="evenodd"><g><path d="M44.7351951,36.9055876 L39.5539497,32.0881006 C38.745291,31.3362152 38.0897436,29.8310952 38.0897436,28.7249585 L38.0897436,24.4 L28.5897436,24.4 L28.5897436,21 L70.6923077,21 L70.6923077,24.4 L61.1923077,24.4 L61.1923077,28.7312433 C61.1923077,29.8381103 60.5716849,31.3866574 59.8081929,32.1878321 L55.3731014,36.8418213 L55.3731014,45.5181782 C55.3731014,46.0723391 54.9733154,46.7273587 54.4828282,46.9798291 L50.0541482,49.2594216 L45.6254682,46.9798291 C45.1337839,46.7267425 44.7351951,46.0819549 44.7351951,45.5181782 L44.7351951,36.9055876 Z" fill="#000000"/><polygon fill="#000000" points="35.8974359 49.7 45.1725135 49.7 50.1527194 51.4 55.2129298 49.7 63.3846154 49.7 63.3846154 51.5453913 50.1163726 53.1 35.8974359 51.4615425"/><path d="M49.75,55.65 L49.75,81.2066038" stroke="#000000" stroke-width="1.5" stroke-linecap="round" stroke-dasharray="1,4,1,4"/><path d="M43.8461538,55.85 L31.8205128,79.65" stroke="#000000" stroke-width="1.5" stroke-linecap="round" stroke-dasharray="1,4,1,4"/><path d="M38.1923077,55.85 L15.8589744,72.85" stroke="#000000" stroke-width="1.5" stroke-linecap="round" stroke-dasharray="1,4,1,4"/><path d="M83.1410256,55.65 L60.8076923,72.65" stroke="#000000" stroke-width="1.5" stroke-linecap="round" stroke-dasharray="1,4,1,4" transform="translate(71.974359, 64.150000) scale(-1, 1) translate(-71.974359, -64.150000) "/><path d="M67.6794872,55.65 L55.6538462,79.45" stroke="#000000" stroke-width="1.5" stroke-linecap="round" stroke-dasharray="1,4,1,4" transform="translate(61.666667, 67.550000) scale(-1, 1) translate(-61.666667, -67.550000) "/></g></g>
</svg>